# xmcd
#
# Track frame offsets:
#	150
#	15182
#	28586
#	48011
#	68038
#	82499
#	104030
#	120319
#	137135
#	159519
#	180584
#	195702
#	215997
#
# Disc length: 3352 seconds
#
# Revision: 0
# Processed by: cddbd v1.4PL0 Copyright (c) Steve Scherf et al.
# Submitted via: EasyCDDAExtractor 4.6.0.1
#
DISCID=b30d160d
DTITLE=Johnson Stompers - Bush Telegraph
DYEAR=2001
DGENRE=Blues
TTITLE0=Highwater Everywhere
TTITLE1=Hot Tamalies
TTITLE2=Pick A Bale
TTITLE3=Write Me
TTITLE4=Mudsteppin'
TTITLE5=Bush Telegraph
TTITLE6=Diddie Wah Diddie
TTITLE7=Sophisticated Momma
TTITLE8=QR Blues
TTITLE9=Step It Up
TTITLE10=Can't get Satisified
TTITLE11=Preachin'
TTITLE12=Stompin' Blues
EXTD=
EXTT0=
EXTT1=
EXTT2=
EXTT3=
EXTT4=
EXTT5=
EXTT6=
EXTT7=
EXTT8=
EXTT9=
EXTT10=
EXTT11=
EXTT12=
PLAYORDER=
